<svg width="20" height="19" viewBox="0 0 20 19" fill="none" xmlns="http://www.w3.org/2000/svg">
<path fill-rule="evenodd" clip-rule="evenodd" d="M7.36506 0C6.81278 0 6.36506 0.447716 6.36506 1V5.46976L1.89539 5.46976C1.3431 5.46976 0.895386 5.91747 0.895386 6.46976L0.895386 11.7628C0.895386 12.3151 1.3431 12.7628 1.89539 12.7628H6.36506V17.2326C6.36506 17.7848 6.81278 18.2326 7.36506 18.2326H12.6581C13.2104 18.2326 13.6581 17.7848 13.6581 17.2326V12.7628H18.1279C18.6802 12.7628 19.1279 12.3151 19.1279 11.7628V6.46976C19.1279 5.91748 18.6802 5.46976 18.1279 5.46976L13.6581 5.46976V1C13.6581 0.447715 13.2104 0 12.6581 0H7.36506Z" fill="#88C6FF"/>
</svg>
