<svg width="35" height="28" viewBox="0 0 35 28" fill="none" xmlns="http://www.w3.org/2000/svg">
<rect x="7.83722" y="0.5" width="25.8605" height="20.7442" fill="#F2F2F2" stroke="#88C6FF"/>
<rect x="5.27905" y="3.05814" width="25.8605" height="20.7442" fill="#F2F2F2" stroke="#88C6FF"/>
<path d="M5.14927 6.42163L4.73325 6.14428L5.14928 6.42163L5.24088 6.28422C5.51908 5.86692 5.98742 5.61627 6.48895 5.61627H14.5808C15.0823 5.61627 15.5507 5.86692 15.8289 6.28422L15.9205 6.42163C16.3841 7.11712 17.1647 7.53488 18.0006 7.53488H26.4418C27.2703 7.53488 27.9418 8.20645 27.9418 9.03488V25.5C27.9418 26.3284 27.2703 27 26.4418 27H2.30231C1.47388 27 0.802307 26.3284 0.802307 25.5V9.03488C0.802307 8.20645 1.47388 7.53488 2.30231 7.53488H3.06915C3.90503 7.53488 4.68561 7.11712 5.14927 6.42163Z" fill="white" stroke="#88C6FF"/>
<path fill-rule="evenodd" clip-rule="evenodd" d="M13.965 11.5116C13.4128 11.5116 12.965 11.9593 12.965 12.5116V14.5814L10.8953 14.5814C10.343 14.5814 9.89532 15.0291 9.89532 15.5814L9.89532 17.6744C9.89532 18.2267 10.343 18.6744 10.8953 18.6744H12.965V20.7442C12.965 21.2965 13.4128 21.7442 13.965 21.7442H16.0581C16.6104 21.7442 17.0581 21.2965 17.0581 20.7442V18.6744H19.1279C19.6802 18.6744 20.1279 18.2267 20.1279 17.6744V15.5814C20.1279 15.0291 19.6802 14.5814 19.1279 14.5814L17.0581 14.5814V12.5116C17.0581 11.9593 16.6104 11.5116 16.0581 11.5116H13.965Z" fill="#88C6FF"/>
</svg>
