<svg width="18" height="30" viewBox="0 0 18 30" fill="none" xmlns="http://www.w3.org/2000/svg">
<rect x="4" width="10" height="20" rx="5" fill="white"/>
<rect x="8" y="19" width="2" height="11" fill="white"/>
<path d="M18 15C18 16.1819 17.7672 17.3522 17.3149 18.4442C16.8626 19.5361 16.1997 20.5282 15.364 21.364C14.5282 22.1997 13.5361 22.8626 12.4442 23.3149C11.3522 23.7672 10.1819 24 9 24C7.8181 24 6.64778 23.7672 5.55585 23.3149C4.46392 22.8626 3.47177 22.1997 2.63604 21.364C1.80031 20.5282 1.13738 19.5361 0.685084 18.4441C0.232792 17.3522 -1.03325e-07 16.1819 0 15H2.13631C2.13631 15.9014 2.31385 16.7939 2.65878 17.6266C3.00371 18.4594 3.50929 19.216 4.14664 19.8534C4.78399 20.4907 5.54064 20.9963 6.37338 21.3412C7.20612 21.6862 8.09865 21.8637 9 21.8637C9.90135 21.8637 10.7939 21.6862 11.6266 21.3412C12.4594 20.9963 13.216 20.4907 13.8534 19.8534C14.4907 19.216 14.9963 18.4594 15.3412 17.6266C15.6862 16.7939 15.8637 15.9014 15.8637 15H18Z" fill="white"/>
</svg>
