<svg width="28" height="24" viewBox="0 0 28 24" fill="none" xmlns="http://www.w3.org/2000/svg">
<path d="M27.5 3V17C27.5 18.3807 26.3807 19.5 25 19.5H3C1.61929 19.5 0.5 18.3807 0.5 17V3C0.5 1.61929 1.61929 0.5 3 0.5H25C26.3807 0.5 27.5 1.61929 27.5 3Z" fill="white" stroke="#88C6FF"/>
<path d="M17 22V19H11V22H17Z" fill="#88C6FF"/>
<path d="M9 24H19C19.5523 24 20 23.5523 20 23C20 22.4477 19.5523 22 19 22H9C8.44772 22 8 22.4477 8 23C8 23.5523 8.44772 24 9 24Z" fill="#88C6FF"/>
<ellipse cx="14.5" cy="12.5" rx="5.5" ry="3.5" fill="#88C6FF"/>
<circle cx="14.5" cy="5.5" r="2.5" fill="#88C6FF"/>
<path d="M9 13H20V16H9V13Z" fill="#88C6FF"/>
</svg>
