<svg width="110" height="18" viewBox="0 0 110 18" fill="none" xmlns="http://www.w3.org/2000/svg">
<path d="M0.0038147 8.39949C0.0038147 10.7076 0.0038147 13.0243 0.0038147 15.3324C0.0038147 16.4434 0.710025 17.3907 1.79518 17.6147C2.44971 17.7438 3.13008 17.7008 3.80184 17.7094C4.4047 17.718 4.50805 17.6147 4.50805 17.0204C4.50805 15.4444 4.49944 13.8597 4.51666 12.2836C4.53389 10.7593 5.82573 9.67411 7.31566 9.84636C8.51277 9.98416 9.50318 10.5181 10.3816 11.276C11.3807 12.1372 12.3194 13.076 13.3184 13.9286C14.2227 14.7037 15.1442 15.453 16.1174 16.1247C16.7031 16.5295 17.4179 16.6759 18.1758 16.5381C19.3384 16.3314 20.2169 15.6511 21.0523 14.9018C22.3614 13.7391 23.6274 12.5334 24.945 11.3793C25.858 10.5698 26.8914 9.99277 28.1488 9.83775C29.5957 9.6655 30.922 10.7593 30.9306 12.2061C30.9392 13.1965 30.922 14.187 30.9306 15.1774C30.9392 16.4692 31.7488 17.4941 32.9717 17.6836C33.5573 17.7697 34.1774 17.718 34.7803 17.718C35.3573 17.718 35.4951 17.5888 35.5037 17.0204C35.5123 16.4434 35.5037 15.875 35.5037 15.2979C35.5037 11.3966 35.4865 7.48659 35.5123 3.58522C35.521 1.67329 34.1602 0.691481 32.7392 0.803441C32.0588 0.855115 31.3612 0.829278 30.6722 0.803441C30.3191 0.794829 30.0435 0.889567 29.7852 1.13932C29.1478 1.75941 28.4933 2.37088 27.8474 2.97374C26.6244 4.11918 25.4446 5.3249 24.1527 6.39283C21.9221 8.24447 19.2868 8.78705 16.4533 8.50284C13.9902 8.25309 11.9232 7.17655 10.1836 5.42825C8.96922 4.21391 7.6946 3.05125 6.42859 1.87998C5.65349 1.16516 4.71475 0.803441 3.64682 0.803441C2.65641 0.812054 1.66599 0.803441 0.675576 0.803441C0.0727147 0.803441 0.012427 0.863729 0.0038147 1.4752C0.0038147 3.7833 0.0038147 6.0914 0.0038147 8.39949ZM49.2403 7.8483C49.0767 7.85692 48.9217 7.87415 48.7753 7.87415C47.2854 7.87415 45.7868 7.87415 44.2969 7.87415C43.8146 7.87415 43.7113 7.99472 43.7371 8.45978C43.8146 9.91526 45.3131 11.3793 46.8375 11.4138C48.6719 11.4482 50.515 11.4396 52.3494 11.4138C53.2709 11.4052 53.9857 10.7679 54.0202 9.88081C54.046 9.26934 54.0288 8.64064 53.8824 8.055C53.3915 6.13446 52.2891 4.56702 50.7992 3.2924C48.982 1.73357 46.915 0.786219 44.4605 0.794831C42.2385 0.812056 40.008 0.794831 37.786 0.794831C37.2176 0.794831 37.1745 0.82928 37.1745 1.39769C37.1745 3.61105 37.1745 5.8158 37.1745 8.02917C37.1745 9.32962 37.3554 10.5956 37.9066 11.7927C39.4998 15.2291 42.1266 17.3477 45.9246 17.6577C48.4911 17.8644 51.0834 17.7008 53.6671 17.7008C53.9427 17.7008 54.0546 17.5544 54.046 17.296C54.0374 16.6931 54.0805 16.0817 54.0116 15.4874C53.9082 14.5487 53.4173 13.8425 52.4786 13.5583C52.1255 13.4463 51.7465 13.386 51.3848 13.386C49.7054 13.3688 48.026 13.3946 46.3466 13.3688C45.4854 13.3602 44.6931 13.0932 43.9696 12.6023C42.4969 11.5947 41.7563 10.1736 41.5151 8.44255C41.2395 6.52201 42.3591 5.10959 44.2797 5.04931C46.4069 4.98041 47.9399 6.08278 49.2059 7.66745C49.2317 7.71051 49.2231 7.76218 49.2403 7.8483ZM69.2812 12.5851C69.5654 12.4128 69.7807 12.3181 69.9529 12.1803C70.5644 11.6894 71.2448 11.2502 71.7443 10.6645C72.8897 9.32101 72.9156 7.1421 71.8649 5.50576C69.9271 2.49145 67.0075 1.09626 63.5712 0.837893C61.1856 0.657034 58.7828 0.794831 56.3886 0.794831C55.7168 0.794831 55.7168 0.79483 55.7168 1.46659C55.7168 6.63397 55.7168 11.8014 55.7168 16.9601C55.7168 17.0635 55.6824 17.184 55.7254 17.2529C55.8115 17.408 55.9321 17.6405 56.0613 17.6577C57.2929 17.8127 58.4469 17.6663 59.2823 16.5984C59.8335 15.9008 60.1349 15.0999 60.1349 14.2128C60.1521 11.7841 60.1435 9.36407 60.1521 6.9354C60.1521 5.86748 60.6086 5.21294 61.6421 4.96319C63.4679 4.51535 65.1817 4.82539 66.6889 5.9536C67.1109 6.27225 67.4468 6.77177 67.6965 7.26267C68.0496 7.96026 67.8688 8.6148 67.2056 9.01096C66.7319 9.29517 66.1635 9.47603 65.6123 9.56215C64.6219 9.72579 63.6918 9.33823 62.7617 9.05403C62.2708 8.899 62.1416 8.98513 62.1157 9.51048C62.0985 10.0531 62.0899 10.6042 62.1157 11.1468C62.1502 11.8703 62.4344 12.4559 63.0286 12.9123C64.7769 14.2645 66.4994 15.6424 68.2305 17.0118C68.7128 17.3907 69.2553 17.6749 69.8754 17.6922C71.1414 17.718 72.3988 17.7008 73.6648 17.7094C73.949 17.7094 74.0955 17.5974 74.0955 17.3046C74.0955 16.9343 74.1299 16.5553 74.0782 16.185C74.0524 16.0128 73.8974 15.7889 73.7423 15.7113C72.106 14.9535 70.8142 13.6961 69.2812 12.5851ZM97.5468 9.37268C97.5123 9.35546 97.4692 9.33823 97.4348 9.32962C97.4348 9.1746 97.4348 9.01958 97.4348 8.86456C97.4348 7.03875 97.4348 5.22155 97.4348 3.39575C97.4348 1.87137 96.3841 0.820666 94.877 0.803441C94.4894 0.803441 94.1018 0.803441 93.7143 0.803441C92.9133 0.812054 92.8961 0.820667 92.8961 1.63022C92.8961 6.73732 92.8961 11.853 92.8961 16.9601C92.8961 17.1065 92.8617 17.2702 92.9219 17.3821C92.9822 17.5113 93.1286 17.6836 93.2492 17.6922C94.5583 17.8127 95.764 17.5716 96.7286 16.5898C97.0817 16.2367 97.4434 15.8836 97.7965 15.5305C98.3219 14.9965 98.9592 14.6348 99.7171 14.7381C100.458 14.8329 101.216 14.9965 101.913 15.2635C103.55 15.8836 105.151 16.5726 106.771 17.2357C107.571 17.563 108.398 17.7525 109.285 17.718C109.664 17.7008 109.793 17.563 109.785 17.2013C109.768 16.7534 109.785 16.3142 109.785 15.8664C109.776 14.2386 109.113 13.2999 107.623 12.654C106.736 12.2664 105.84 11.853 105.039 11.3105C103.911 10.544 103.877 9.53632 104.833 8.55451C106.168 7.19377 107.511 5.83303 108.846 4.47228C109.501 3.80914 109.854 3.0168 109.768 2.06084C109.707 1.4063 109.225 0.87234 108.605 0.812054C107.115 0.665645 105.815 1.01875 104.729 2.13835C102.499 4.43783 100.234 6.69426 97.9774 8.9679C97.831 9.1057 97.6846 9.2435 97.5468 9.37268ZM74.3194 5.11821C74.3194 6.10862 74.3366 7.09904 74.3194 8.08945C74.2935 9.69134 74.7328 11.164 75.4562 12.5765C77.127 15.8491 81.2867 18.5792 85.3087 17.8816C87.0311 17.5802 88.5211 16.8223 89.6234 15.4357C90.5966 14.2128 91.0789 12.7918 91.1995 11.2329C91.2339 10.8454 91.122 10.699 90.7516 10.699C89.9765 10.7076 89.2014 10.699 88.4263 10.699C87.3412 10.7076 86.8589 11.0435 86.4541 12.0769C85.9718 13.3085 84.8092 13.9372 83.5173 13.6702C80.8992 13.1363 78.6858 10.2425 78.8494 7.5641C78.9442 5.97082 80.4513 4.79955 82.0274 5.06653C82.8714 5.20433 83.5948 5.57466 84.2838 6.06556C84.9297 6.53062 85.5757 6.53062 86.1785 6.03111C86.6866 5.60911 87.1517 5.14404 87.6168 4.67037C88.5038 3.76608 88.6761 3.92971 87.5565 2.99958C85.9546 1.66467 84.1374 0.837891 82.036 0.803441C79.6418 0.768992 77.2476 0.794831 74.8447 0.786218C74.4399 0.786218 74.3194 0.932626 74.3194 1.32018C74.328 2.5948 74.3194 3.8522 74.3194 5.11821Z" fill="white"/>
<path d="M0.00382769 8.39947C0.00382769 6.09137 0.00382769 3.77466 0.00382769 1.46657C0.00382769 0.863705 0.0641154 0.80342 0.675589 0.794808C1.666 0.794808 2.65642 0.80342 3.64683 0.794808C4.71476 0.786196 5.64489 1.15652 6.42861 1.87135C7.69461 3.03401 8.96924 4.19667 10.1836 5.41961C11.9319 7.16791 13.9902 8.24445 16.4533 8.4942C19.2868 8.78702 21.9221 8.24445 24.1527 6.38419C25.4446 5.31627 26.6245 4.11054 27.8474 2.96511C28.4933 2.35363 29.1479 1.75077 29.7852 1.13069C30.0435 0.880931 30.3105 0.777583 30.6722 0.794808C31.3612 0.812033 32.0502 0.846482 32.7392 0.794808C34.1602 0.682848 35.521 1.67326 35.5124 3.57658C35.4951 7.47795 35.5037 11.3879 35.5037 15.2893C35.5037 15.8663 35.5124 16.4347 35.5037 17.0118C35.4951 17.5802 35.3573 17.7094 34.7803 17.7094C34.1774 17.7094 33.566 17.761 32.9717 17.6749C31.7488 17.4855 30.9392 16.4692 30.9306 15.1687C30.922 14.1783 30.9306 13.1879 30.9306 12.1975C30.922 10.7506 29.5957 9.65686 28.1488 9.82911C26.8914 9.98413 25.8666 10.5612 24.9451 11.3707C23.636 12.5248 22.3614 13.7391 21.0523 14.8931C20.2169 15.6338 19.3298 16.3228 18.1758 16.5295C17.4265 16.6673 16.7117 16.5209 16.1174 16.1161C15.1443 15.4443 14.2141 14.6865 13.3184 13.92C12.3194 13.0587 11.3807 12.1286 10.3817 11.2674C9.5032 10.5095 8.50417 9.97552 7.31568 9.83773C5.82575 9.66548 4.5339 10.7506 4.51668 12.275C4.49945 13.8511 4.51668 15.4357 4.50806 17.0118C4.50806 17.606 4.41333 17.7094 3.80185 17.7008C3.13009 17.6835 2.44111 17.7352 1.79519 17.606C0.710038 17.3907 0.01244 16.4434 0.00382769 15.3238C-0.00478461 13.0243 0.00382769 10.7162 0.00382769 8.39947Z" fill="white"/>
<path d="M49.2404 7.84831C49.2231 7.76218 49.2318 7.71051 49.2059 7.68468C47.9485 6.10001 46.4069 4.99764 44.2797 5.06653C42.3591 5.12682 41.2395 6.53924 41.5151 8.45978C41.7563 10.1909 42.4969 11.6119 43.9696 12.6195C44.6931 13.1104 45.4854 13.3688 46.3466 13.386C48.026 13.4119 49.7054 13.386 51.3848 13.4032C51.7552 13.4032 52.1341 13.4721 52.4786 13.5755C53.4173 13.8683 53.9082 14.5659 54.0116 15.5046C54.0805 16.0989 54.0374 16.7104 54.046 17.3132C54.046 17.5716 53.9427 17.718 53.6671 17.718C51.0834 17.718 48.4911 17.8816 45.9246 17.6749C42.1352 17.3649 39.4999 15.2463 37.9066 11.81C37.3554 10.6129 37.1659 9.34685 37.1745 8.04639C37.1745 5.83303 37.1745 3.62828 37.1745 1.41492C37.1745 0.846507 37.2176 0.812058 37.786 0.812058C40.008 0.812058 42.2386 0.82067 44.4605 0.812058C46.9064 0.794833 48.982 1.7508 50.7992 3.30963C52.2891 4.58425 53.3915 6.15169 53.8824 8.07223C54.0288 8.65787 54.046 9.29518 54.0202 9.89804C53.9771 10.7765 53.2709 11.4138 52.3494 11.431C50.515 11.4569 48.672 11.4655 46.8375 11.431C45.3132 11.4052 43.8146 9.9411 43.7371 8.47701C43.7113 8.01195 43.8232 7.89137 44.2969 7.89137C45.7868 7.89137 47.2854 7.89137 48.7753 7.89137C48.9217 7.87414 49.0767 7.85692 49.2404 7.84831Z" fill="white"/>
<path d="M69.2812 12.5851C70.8142 13.6874 72.106 14.9535 73.751 15.7199C73.906 15.7888 74.061 16.0214 74.0868 16.1936C74.1385 16.564 74.0955 16.9343 74.1041 17.3132C74.1041 17.606 73.9577 17.718 73.6735 17.718C72.4074 17.7094 71.15 17.7352 69.884 17.7008C69.264 17.6836 68.7214 17.408 68.2391 17.0204C66.508 15.651 64.7769 14.2731 63.0373 12.9209C62.443 12.4645 62.1502 11.8789 62.1244 11.1554C62.0985 10.6129 62.0985 10.0617 62.1244 9.51909C62.1416 9.00235 62.2708 8.91623 62.7703 9.06264C63.7004 9.34684 64.6305 9.7344 65.6209 9.57076C66.1721 9.48464 66.7405 9.30378 67.2142 9.01958C67.8774 8.6148 68.0582 7.96026 67.7051 7.27128C67.464 6.78899 67.1281 6.28086 66.6975 5.96221C65.1903 4.834 63.4765 4.51534 61.6507 4.97179C60.6172 5.23016 60.1694 5.87609 60.1608 6.94401C60.1521 9.37268 60.1607 11.7927 60.1435 14.2214C60.1349 15.1085 59.8335 15.9008 59.2909 16.607C58.4555 17.6749 57.3015 17.8213 56.0699 17.6663C55.9407 17.6491 55.8202 17.4166 55.734 17.2616C55.691 17.184 55.7254 17.0635 55.7254 16.9687C55.7254 11.8013 55.7254 6.63397 55.7254 1.4752C55.7254 0.812051 55.7254 0.803437 56.3972 0.803437C58.7914 0.803437 61.2028 0.66564 63.5798 0.846499C67.0161 1.10487 69.9443 2.49145 71.8735 5.51437C72.9242 7.15071 72.8897 9.32962 71.7529 10.6731C71.2534 11.2588 70.573 11.698 69.9615 12.1889C69.7807 12.3181 69.574 12.4128 69.2812 12.5851Z" fill="white"/>
<path d="M97.5468 9.37269C97.6932 9.23489 97.831 9.10571 97.9688 8.96791C100.225 6.69426 102.49 4.43784 104.721 2.13835C105.806 1.01875 107.098 0.657039 108.596 0.81206C109.216 0.872346 109.699 1.40631 109.759 2.06084C109.845 3.01681 109.483 3.80053 108.837 4.47229C107.503 5.84164 106.159 7.19378 104.824 8.55452C103.868 9.52771 103.903 10.544 105.031 11.3105C105.832 11.853 106.727 12.2664 107.615 12.654C109.113 13.3085 109.776 14.2386 109.776 15.8664C109.776 16.3142 109.768 16.7534 109.776 17.2013C109.785 17.563 109.656 17.7008 109.277 17.718C108.398 17.7525 107.571 17.563 106.762 17.2357C105.143 16.5726 103.541 15.875 101.905 15.2635C101.207 14.9965 100.449 14.8329 99.7085 14.7382C98.9592 14.6434 98.3219 14.9965 97.7879 15.5305C97.4348 15.8836 97.0731 16.2367 96.72 16.5898C95.7554 17.563 94.5497 17.8127 93.2406 17.6922C93.12 17.6836 92.9822 17.5113 92.9133 17.3821C92.8531 17.2616 92.8875 17.0979 92.8875 16.9601C92.8875 11.853 92.8875 6.73732 92.8875 1.63023C92.8875 0.820672 92.8961 0.81206 93.7057 0.803447C94.0932 0.803447 94.4808 0.803447 94.8683 0.803447C96.3755 0.820672 97.4176 1.87137 97.4262 3.39575C97.4262 5.22156 97.4262 7.03876 97.4262 8.86457C97.4262 9.01959 97.4262 9.17461 97.4262 9.32963C97.4693 9.33824 97.5123 9.35546 97.5468 9.37269Z" fill="white"/>
<path d="M74.3194 5.1182C74.3194 3.8522 74.328 2.5948 74.3108 1.32879C74.3108 0.94985 74.4313 0.79483 74.8361 0.79483C77.2303 0.812055 79.6332 0.777604 82.0274 0.812053C84.1288 0.846503 85.9546 1.67328 87.5479 3.00819C88.6675 3.93832 88.5038 3.77468 87.6082 4.67898C87.1431 5.14404 86.678 5.61772 86.1699 6.03972C85.5584 6.53924 84.9125 6.53924 84.2752 6.07417C83.5862 5.58327 82.8628 5.21294 82.0188 5.07514C80.4341 4.80816 78.9356 5.97944 78.8408 7.57271C78.6858 10.2511 80.8992 13.1363 83.5087 13.6788C84.8092 13.9458 85.9718 13.3171 86.4455 12.0856C86.8503 11.0521 87.3326 10.7162 88.4177 10.7076C89.1928 10.7076 89.9679 10.7162 90.743 10.7076C91.122 10.7076 91.2253 10.854 91.1909 11.2416C91.0617 12.8004 90.588 14.2214 89.6148 15.4444C88.5125 16.8309 87.0139 17.5888 85.3001 17.8903C81.2867 18.5878 77.1184 15.8577 75.4476 12.5851C74.7242 11.1727 74.2849 9.69995 74.3108 8.09806C74.3366 7.09903 74.3194 6.10862 74.3194 5.1182Z" fill="white"/>
</svg>
